# This file uses centimeters as units for non-parametric coordinates.

mtllib menu shelf.mtl
g default
v -9.984931 0.184931 0.948551
v -9.948551 0.184931 0.984931
v -9.948551 0.200000 0.948551
v 9.984931 0.184931 0.948551
v 9.948551 0.200000 0.948551
v 9.948551 0.184931 0.984931
v -9.984917 0.196647 -1.035494
v -9.984941 0.184886 -0.963300
v -9.948583 0.200000 -0.963102
v -9.948528 0.203129 -0.999476
v -9.948491 0.212423 -1.034814
v 9.984917 0.196647 -1.035494
v 9.948491 0.212423 -1.034814
v 9.948539 0.203129 -0.999482
v 9.948615 0.200000 -0.963125
v 9.984950 0.184868 -0.963291
v -9.984945 0.284458 -1.246644
v -9.984965 0.248006 -1.179476
v -9.948643 0.264383 -1.180430
v -9.948269 0.280141 -1.213505
v -9.948232 0.302232 -1.242759
v 9.984945 0.284458 -1.246644
v 9.948232 0.302232 -1.242759
v 9.948173 0.280211 -1.213627
v 9.948734 0.264405 -1.180492
v 9.984994 0.247899 -1.179392
v -9.985673 0.378926 -1.350930
v -9.951015 0.400321 -1.348665
v -9.951396 0.407226 -1.389479
v 9.952851 0.408248 -1.390600
v 9.953479 0.403279 -1.351858
v 9.986374 0.380991 -1.352646
v -9.978245 0.178245 0.978245
v 9.978245 0.178245 0.978245
v -9.984931 0.187698 -1.000615
v 9.984932 0.187692 -1.000573
v -9.984930 0.263591 -1.216990
v 9.984880 0.263525 -1.216937
v -9.979487 0.393120 -1.383447
v 9.980083 0.394120 -1.384231
v -10.000000 0.148395 -0.963510
v -10.000000 0.148551 0.948551
v -9.948551 0.148551 1.000000
v 9.948551 0.148551 1.000000
v 10.000000 0.148551 0.948551
v 10.000000 0.148335 -0.963468
v -10.000000 0.208449 -1.178542
v -10.000000 0.158552 -1.036208
v 10.000000 0.158552 -1.036208
v 10.000000 0.208024 -1.178313
v -10.000000 0.327176 -1.354511
v -10.000000 0.241228 -1.250906
v 10.000000 0.241228 -1.250906
v 10.000000 0.327176 -1.354511
v 9.951015 0.372590 -1.412148
v -9.951015 0.372590 -1.412148
v -9.984931 0.148552 0.984931
v 9.984931 0.148552 0.984931
v -10.000000 0.150453 -1.001868
v 10.000000 0.150439 -1.001763
v -10.000000 0.223203 -1.220460
v 10.000000 0.222881 -1.220168
v -9.985659 0.359526 -1.395074
v 9.985659 0.359526 -1.395074
vt 0.014766 0.949495
vt 0.014766 0.947743
vt 0.100610 0.947743
vt 0.100610 0.949495
vt 0.011777 0.947743
vt 0.013290 0.947743
vt 0.102188 0.949495
vt 0.102188 0.947743
vt 0.103710 0.947743
vt 0.103710 0.949495
vt 0.110102 0.947743
vt 0.110102 0.949495
vt 0.111727 0.949495
vt 0.111727 0.947743
vt 0.113323 0.947743
vt 0.113323 0.949495
vt 0.118313 0.947743
vt 0.118313 0.949495
vt 0.120595 0.947981
vt 0.119363 0.947743
vt 0.014766 0.052275
vt 0.013289 0.050774
vt 0.100610 0.050689
vt 0.100610 0.052275
vt 0.011777 0.052275
vt 0.013290 0.052275
vt 0.102188 0.050689
vt 0.102188 0.052275
vt 0.103710 0.050689
vt 0.103710 0.052275
vt 0.110102 0.050689
vt 0.110102 0.052275
vt 0.111727 0.050689
vt 0.111727 0.052275
vt 0.113323 0.050689
vt 0.113323 0.052275
vt 0.117101 0.050689
vt 0.118313 0.052275
vt 0.119363 0.050689
vt 0.119363 0.052275
vt 0.014766 0.946413
vt 0.100610 0.946413
vt 0.013290 0.946413
vt 0.014766 0.053628
vt 0.100610 0.053628
vt 0.102188 0.946413
vt 0.013290 0.053628
vt 0.102188 0.053628
vt 0.103710 0.946413
vt 0.103710 0.053628
vt 0.110102 0.946413
vt 0.110102 0.053628
vt 0.111727 0.946413
vt 0.111727 0.053628
vt 0.113323 0.946413
vt 0.113323 0.053628
vt 0.118313 0.946413
vt 0.118313 0.053628
vt 0.119363 0.946413
vt 0.119363 0.053628
vt 0.120595 0.946413
vt 0.120595 0.053628
vt 0.011777 0.946413
vt 0.011777 0.053628
vt 0.120595 0.052275
vt 0.014766 0.050689
vt 0.013276 0.949276
vn -0.924328 0.381571 0.004676
vn -0.924332 0.381560 0.004775
vn -0.924161 0.382004 0.000475
vn -0.924159 0.382009 0.000446
vn -0.382726 0.923850 0.004793
vn -0.000752 0.999970 0.007730
vn -0.000760 0.999999 0.001604
vn -0.383366 0.923595 0.001379
vn -0.000467 0.923901 0.382631
vn 0.000467 0.923901 0.382631
vn 0.000753 0.999970 0.007730
vn -0.000467 0.382631 0.923901
vn -0.000457 0.382632 0.923901
vn 0.000457 0.382632 0.923901
vn 0.000467 0.382631 0.923901
vn 0.383030 0.923723 0.004794
vn 0.383675 0.923467 0.001376
vn 0.000760 0.999999 0.001604
vn 0.924451 0.381271 0.004768
vn 0.924447 0.381282 0.004668
vn 0.924280 0.381716 0.000443
vn 0.924282 0.381711 0.000473
vn -0.924959 0.361258 0.118087
vn -0.924841 0.360335 0.121772
vn -0.926059 0.354814 0.128535
vn -0.925354 0.356905 0.127824
vn -0.384497 0.875065 0.293979
vn -0.000792 0.947200 0.320644
vn -0.000727 0.935117 0.354339
vn -0.384953 0.865337 0.320941
vn -0.000789 0.985333 0.170641
vn 0.000789 0.985337 0.170617
vn 0.000793 0.947199 0.320646
vn 0.385348 0.874755 0.293786
vn 0.386075 0.864983 0.320547
vn 0.000729 0.935133 0.354296
vn 0.925378 0.359221 0.120983
vn 0.925430 0.360275 0.117391
vn 0.925981 0.355592 0.126942
vn 0.926692 0.353465 0.127687
vn -0.931632 0.284489 0.226113
vn -0.932898 0.274412 0.233237
vn -0.958866 0.265722 0.099843
vn -0.942975 0.268706 0.196457
vn -0.414662 0.685491 0.598462
vn -0.000864 0.746968 0.664859
vn -0.000728 0.813999 0.580866
vn -0.431384 0.700906 0.568013
vn -0.000831 0.854902 0.518790
vn 0.000829 0.854941 0.518725
vn 0.000861 0.746839 0.665004
vn 0.417165 0.681512 0.601262
vn 0.437139 0.692996 0.573294
vn 0.000877 0.733799 0.679366
vn 0.935291 0.267922 0.231192
vn 0.933394 0.279578 0.224969
vn 0.945934 0.259891 0.194076
vn 0.963740 0.252446 0.086469
vn -0.000806 0.532380 -0.846505
vn -0.000673 0.532392 -0.846498
vn 0.000626 0.532339 -0.846531
vn 0.000715 0.532325 -0.846540
vn -0.000747 0.989026 0.147741
vn -0.000083 0.989043 0.147630
vn -0.000083 0.989043 0.147630
vn -0.325270 0.887920 0.325266
vn -0.887917 0.325282 0.325261
vn -0.887917 0.325282 0.325261
vn -0.325267 0.325284 0.887915
vn -0.325267 0.325284 0.887914
vn 0.887920 0.325277 0.325259
vn 0.887920 0.325277 0.325259
vn 0.325271 0.887919 0.325267
vn 0.325262 0.325285 0.887916
vn 0.325262 0.325285 0.887916
vn -0.388831 0.908915 0.150612
vn -0.926034 0.373546 0.054080
vn -0.926025 0.372865 0.058734
vn 0.926096 0.373382 0.054145
vn 0.926077 0.372715 0.058859
vn 0.388993 0.908854 0.150559
vn -0.398035 0.799983 0.448994
vn -0.928960 0.335321 0.156823
vn -0.928517 0.328414 0.173206
vn 0.929285 0.334471 0.156714
vn 0.928619 0.327705 0.174000
vn 0.398661 0.799889 0.448606
vn -0.469732 0.427959 -0.772142
vn -0.469732 0.427959 -0.772142
vn -0.961745 0.250684 -0.110476
vn -0.961745 0.250684 -0.110476
vn -0.472000 0.856448 0.209075
vn 0.964588 0.228453 -0.131833
vn 0.964588 0.228453 -0.131833
vn 0.471100 0.389873 -0.791242
vn 0.471100 0.389873 -0.791242
vn 0.498962 0.849861 0.169631
vn 0.498962 0.849860 0.169631
s 1
g shelf_top
usemtl standardSurface2SG
f 42/1/1 1/2/2 8/3/3 41/4/4
s 2
f 1/2/5 3/41/6 9/42/7 8/3/8
f 3/41/6 2/43/9 6/47/10 5/44/11
s 3
f 2/43/12 43/63/13 44/64/14 6/47/15
s 2
f 5/44/11 4/21/16 16/24/17 15/45/18
s 4
f 4/21/19 45/66/20 46/23/21 16/24/22
s 1
f 48/10/23 7/9/24 18/11/25 47/12/26
s 2
f 7/9/27 11/49/28 19/51/29 18/11/30
f 11/49/28 10/46/31 14/48/32 13/50/33
f 10/46/31 9/42/7 15/45/18 14/48/32
f 13/50/33 12/30/34 26/32/35 25/52/36
s 4
f 12/30/37 49/29/38 50/31/39 26/32/40
s 1
f 52/16/41 17/15/42 27/17/43 51/18/44
s 2
f 17/15/45 21/55/46 28/57/47 27/17/48
f 21/55/46 20/53/49 24/54/50 23/56/51
f 20/53/49 19/51/29 25/52/36 24/54/50
f 23/56/51 22/36/52 32/38/53 31/58/54
s 4
f 22/36/55 53/35/56 54/37/57 32/38/58
s 11
f 56/61/59 29/59/60 30/60/61 55/62/62
s 2
f 29/59/63 28/57/47 31/58/64 30/60/65
f 3/41/6 5/44/11 15/45/18 9/42/7
f 11/49/28 13/50/33 25/52/36 19/51/29
f 21/55/46 23/56/51 31/58/54 28/57/47
f 2/43/9 3/41/6 1/2/5 33/6/66
s 1
f 1/2/2 42/67/1 57/5/67 33/6/68
s 3
f 57/5/69 43/63/13 2/43/12 33/6/70
s 4
f 58/25/71 45/22/20 4/21/19 34/26/72
s 2
f 4/21/16 5/44/11 6/47/10 34/26/73
s 3
f 6/47/15 44/64/14 58/25/74 34/26/75
s 2
f 10/46/31 11/49/28 7/9/27 35/8/76
s 1
f 7/9/24 48/10/23 59/7/77 35/8/78
f 59/7/77 41/4/4 8/3/3 35/8/78
s 2
f 8/3/8 9/42/7 10/46/31 35/8/76
s 4
f 60/27/79 49/29/38 12/30/37 36/28/80
s 2
f 12/30/34 13/50/33 14/48/32 36/28/81
f 14/48/32 15/45/18 16/24/17 36/28/81
s 4
f 16/24/22 46/23/21 60/27/79 36/28/80
s 2
f 20/53/49 21/55/46 17/15/45 37/14/82
s 1
f 17/15/42 52/16/41 61/13/83 37/14/84
f 61/13/83 47/12/26 18/11/25 37/14/84
s 2
f 18/11/30 19/51/29 20/53/49 37/14/82
s 4
f 62/33/85 53/35/56 22/36/55 38/34/86
s 2
f 22/36/52 23/56/51 24/54/50 38/34/87
f 24/54/50 25/52/36 26/32/35 38/34/87
s 4
f 26/32/40 50/31/39 62/33/85 38/34/86
s 11
f 29/59/60 56/61/59 63/19/88 39/20/89
s 1
f 63/19/90 51/18/44 27/17/43 39/20/91
s 2
f 27/17/48 28/57/47 29/59/63 39/20/92
s 4
f 32/38/58 54/37/57 64/39/93 40/40/94
s 11
f 64/65/95 55/62/62 30/60/61 40/40/96
s 2
f 30/60/97 31/58/54 32/38/53 40/40/98
g default
v -9.984931 -0.184931 0.948551
v -9.948551 -0.200000 0.948551
v -9.948551 -0.184931 0.984931
v -9.948551 -0.148551 1.000000
v -9.984931 -0.148550 0.984931
v -10.000000 -0.148551 0.948551
v 9.984931 -0.184931 0.948551
v 10.000000 -0.148551 0.948551
v 9.984931 -0.148551 0.984931
v 9.948551 -0.148551 1.000000
v 9.948551 -0.184931 0.984931
v 9.948551 -0.200000 0.948551
v -10.000000 0.148551 0.948551
v -9.984931 0.148552 0.984931
v -9.948551 0.148551 1.000000
v 9.948551 0.148551 1.000000
v 9.984931 0.148552 0.984931
v 10.000000 0.148551 0.948551
v -10.000000 0.158552 -1.036208
v -10.000000 0.150453 -1.001868
v -10.000000 0.148395 -0.963510
v 10.000000 0.148335 -0.963468
v 10.000000 0.150439 -1.001763
v 10.000000 0.158552 -1.036208
v -9.984960 -0.171382 -1.035602
v -9.948629 -0.187611 -1.034720
v -9.948633 -0.196880 -0.999458
v -9.948615 -0.200000 -0.963125
v -9.984950 -0.184949 -0.963400
v -10.000000 -0.148612 -0.963663
v -10.000000 -0.144334 -0.998180
v -10.000000 -0.132186 -1.036491
v 9.984960 -0.171382 -1.035602
v 10.000000 -0.132186 -1.036491
v 10.000000 -0.144279 -0.998229
v 10.000000 -0.148534 -0.963608
v 9.984941 -0.184926 -0.963360
v 9.948583 -0.200000 -0.963102
v 9.948613 -0.196880 -0.999452
v 9.948629 -0.187611 -1.034720
v -10.000000 0.241228 -1.250906
v -10.000000 0.223203 -1.220460
v -10.000000 0.208449 -1.178542
v 10.000000 0.208024 -1.178313
v 10.000000 0.222881 -1.220168
v 10.000000 0.241228 -1.250906
v 9.985133 -0.074765 -1.246923
v 10.000000 -0.018423 -1.252045
v 10.000000 -0.059907 -1.211674
v 10.000000 -0.081725 -1.179148
v 9.984919 -0.119859 -1.179779
v 9.948503 -0.135651 -1.180335
v 9.948654 -0.119950 -1.213376
v 9.948671 -0.097983 -1.242526
v -9.985133 -0.074765 -1.246923
v -9.948671 -0.097983 -1.242526
v -9.948627 -0.119952 -1.213369
v -9.948457 -0.135662 -1.180303
v -9.984905 -0.119895 -1.179799
v -10.000000 -0.081822 -1.179233
v -10.000000 -0.060000 -1.211686
v -10.000000 -0.018423 -1.252045
v -9.985659 0.359526 -1.395074
v -10.000000 0.327176 -1.354511
v -9.951015 0.372590 -1.412148
v 9.985659 0.359526 -1.395074
v 9.951015 0.372590 -1.412148
v 10.000000 0.327176 -1.354511
v 9.946925 0.062532 -1.404342
v 9.947142 0.099905 -1.412148
v 9.985074 0.097584 -1.395570
v 10.000000 0.080616 -1.362935
v 9.985027 0.045141 -1.372851
v 9.947142 0.031403 -1.382224
v -9.985313 0.097276 -1.395543
v -9.947846 0.099361 -1.412148
v -9.947305 0.062379 -1.404338
v -9.947142 0.031403 -1.382224
v -9.985027 0.045141 -1.372851
v -10.000000 0.080616 -1.362935
v -9.978245 -0.178244 0.978245
v 9.978245 -0.178245 0.978245
v -9.984959 -0.181494 -0.999021
v 9.984952 -0.181478 -0.999038
v 9.984988 -0.102215 -1.213257
v -9.984980 -0.102248 -1.213249
v 9.978173 0.066829 -1.394735
v -9.978352 0.066702 -1.394718
vt 0.413699 0.973811
vt 0.416542 0.975367
vt 0.323468 0.975725
vt 0.323664 0.973928
vt 0.416871 0.973608
vt 0.415203 0.973285
vt 0.430799 0.975668
vt 0.322116 0.989386
vt 0.321801 0.975767
vt 0.322063 0.973944
vt 0.430977 0.973806
vt 0.319224 0.988969
vt 0.319887 0.975878
vt 0.320368 0.973999
vt 0.316615 0.988609
vt 0.312541 0.975752
vt 0.313190 0.973981
vt 0.305683 0.987015
vt 0.310549 0.975849
vt 0.311461 0.974021
vt 0.302824 0.985936
vt 0.307783 0.976080
vt 0.309484 0.974088
vt 0.300815 0.985176
vt 0.300196 0.975688
vt 0.301264 0.974169
vt 0.293795 0.983366
vt 0.298331 0.974414
vt 0.299673 0.973830
vt 0.291833 0.982579
vt 0.411327 0.035072
vt 0.411575 0.036913
vt 0.321564 0.037208
vt 0.321341 0.035406
vt 0.414769 0.037092
vt 0.413090 0.037428
vt 0.319678 0.035386
vt 0.319966 0.037210
vt 0.319787 0.021759
vt 0.411251 0.021097
vt 0.428833 0.036836
vt 0.316963 0.022193
vt 0.318271 0.037177
vt 0.317782 0.035309
vt 0.314424 0.022574
vt 0.311115 0.037211
vt 0.310499 0.035429
vt 0.303869 0.024102
vt 0.308555 0.035335
vt 0.309399 0.037183
vt 0.301149 0.025137
vt 0.307446 0.037109
vt 0.305892 0.035071
vt 0.299258 0.025869
vt 0.299487 0.036943
vt 0.298896 0.035218
vt 0.292458 0.027607
vt 0.297552 0.036261
vt 0.297798 0.037335
vt 0.283179 0.037111
vt 0.413466 0.971946
vt 0.323843 0.972138
vt 0.415310 0.971937
vt 0.322148 0.972147
vt 0.321736 0.039011
vt 0.411355 0.038781
vt 0.413198 0.038777
vt 0.320039 0.039010
vt 0.320454 0.972155
vt 0.318344 0.039010
vt 0.313269 0.972184
vt 0.311152 0.039016
vt 0.311567 0.972201
vt 0.309450 0.039009
vt 0.309870 0.972212
vt 0.307751 0.039008
vt 0.301005 0.972186
vt 0.298872 0.039081
vt 0.299231 0.972202
vt 0.297086 0.039094
vt 0.417153 0.971928
vt 0.415041 0.038772
vt 0.428974 0.038733
vt 0.431086 0.971905
vt 0.284655 0.972414
vt 0.297468 0.972235
vt 0.282509 0.038932
vt 0.295298 0.039087
vt 0.414452 0.035331
vt 0.428620 0.034979
vt 0.413443 0.989570
vt 0.413457 0.975645
vt 0.290446 0.028431
vt 0.295600 0.037142
vt 0.285342 0.974236
vn -0.000751 -0.999970 0.007730
vn -0.382152 -0.924087 0.004815
vn -0.382765 -0.923845 -0.001593
vn -0.000759 -0.999999 -0.001602
vn -0.924096 -0.382130 0.004814
vn -0.998966 -0.044852 0.007441
vn -0.998985 -0.045054 -0.000095
vn -0.923914 -0.382600 -0.000696
vn -0.000727 -0.045115 0.998982
vn -0.000467 -0.382631 0.923901
vn 0.000467 -0.382631 0.923901
vn 0.000727 -0.045115 0.998982
vn -0.000467 -0.923901 0.382631
vn 0.000751 -0.999970 0.007730
vn 0.000467 -0.923901 0.382631
vn -0.924821 -0.028696 0.379319
vn -0.923881 0.000000 0.382680
vn -0.999970 -0.000000 0.007735
vn -0.379326 -0.028697 0.924818
vn -0.000756 0.000000 1.000000
vn -0.382687 0.000000 0.923878
vn 0.998965 -0.044872 0.007441
vn 0.924159 -0.381978 0.004798
vn 0.923978 -0.382444 -0.000705
vn 0.998983 -0.045081 -0.000096
vn 0.382287 -0.924031 0.004803
vn 0.000759 -0.999999 -0.001603
vn 0.382904 -0.923787 -0.001598
vn 0.379325 -0.028697 0.924818
vn 0.382687 0.000000 0.923878
vn 0.000756 0.000000 1.000000
vn 0.924821 -0.028697 0.379319
vn 0.999970 0.000000 0.007737
vn 0.923881 0.000000 0.382680
vn -1.000000 -0.000000 0.000000
vn -1.000000 0.000000 0.000000
vn -0.998691 -0.049999 -0.010833
vn -1.000000 0.000000 0.000000
vn -0.998120 -0.057899 -0.020083
vn 1.000000 0.000000 0.000000
vn 1.000000 0.000000 0.000000
vn 0.998690 -0.050018 -0.010786
vn 0.998116 -0.057956 -0.020119
vn 1.000000 0.000000 0.000000
vn -0.000707 -0.947208 -0.320620
vn -0.382114 -0.874302 -0.299307
vn -0.382063 -0.861502 -0.334428
vn -0.000784 -0.935166 -0.354209
vn -0.924129 -0.361844 -0.122697
vn -0.999143 -0.038130 -0.016077
vn -0.923443 -0.358140 -0.137802
vn -0.000752 -0.985357 -0.170502
vn 0.000753 -0.985353 -0.170525
vn 0.000707 -0.947205 -0.320626
vn 0.924283 -0.361480 -0.122607
vn 0.923658 -0.357606 -0.137746
vn 0.999142 -0.038165 -0.016097
vn 0.382606 -0.874116 -0.299222
vn 0.000785 -0.935167 -0.354207
vn 0.382738 -0.861243 -0.334323
vn -1.000000 0.000000 0.000000
vn -1.000000 0.000000 0.000000
vn -0.997900 -0.049851 -0.041353
vn -1.000000 0.000000 0.000000
vn -0.994768 -0.074958 -0.069412
vn 1.000000 0.000000 0.000000
vn 1.000000 0.000000 0.000000
vn 0.997904 -0.049840 -0.041273
vn 0.994781 -0.074868 -0.069320
vn 1.000000 0.000000 0.000000
vn 0.920486 -0.286807 -0.265420
vn 0.916125 -0.278920 -0.287956
vn 0.995791 -0.028904 -0.086978
vn 0.377535 -0.680136 -0.628397
vn 0.000606 -0.744681 -0.667421
vn 0.000717 -0.710298 -0.703900
vn 0.374488 -0.660203 -0.651069
vn 0.000775 -0.855280 -0.518165
vn -0.000774 -0.855259 -0.518200
vn -0.000606 -0.744676 -0.667425
vn -0.377497 -0.680143 -0.628411
vn -0.374660 -0.660685 -0.650481
vn -0.000715 -0.710173 -0.704027
vn -0.920356 -0.286937 -0.265730
vn -0.995831 -0.028850 -0.086535
vn -0.916257 -0.279199 -0.287264
vn -0.984777 0.002737 -0.173802
vn -0.930825 0.005754 -0.365419
vn -0.927431 -0.008624 -0.373896
vn -0.422834 -0.001981 -0.906205
vn -0.000667 -0.000003 -1.000000
vn -0.000810 -0.024791 -0.999692
vn -0.416886 -0.017421 -0.908792
vn 0.000668 -0.000004 -1.000000
vn 0.420198 -0.002661 -0.907429
vn 0.413986 -0.017978 -0.910106
vn 0.000809 -0.024875 -0.999690
vn 0.929761 0.005387 -0.368124
vn 0.984524 0.002564 -0.175232
vn 0.926280 -0.008765 -0.376735
vn 0.000579 -0.401640 -0.915798
vn -0.000572 -0.400523 -0.916287
vn -0.887918 -0.325273 0.325268
vn -0.325278 -0.887914 0.325274
vn -0.325273 -0.325281 0.887913
vn 0.325274 -0.887917 0.325269
vn 0.887917 -0.325279 0.325265
vn 0.325269 -0.325282 0.887914
vn -0.925362 -0.371917 -0.073368
vn -0.386852 -0.906953 -0.166681
vn 0.387018 -0.906939 -0.166367
vn 0.925444 -0.371794 -0.072956
vn 0.381215 -0.771527 -0.509334
vn 0.920177 -0.319133 -0.226778
vn -0.919805 -0.319690 -0.227503
vn -0.380589 -0.771726 -0.509501
vn 0.362536 -0.371592 -0.854685
vn 0.846195 -0.212458 -0.488687
vn -0.848394 -0.215166 -0.483664
vn -0.365264 -0.375823 -0.851669
s 1
g shelf_bottom
usemtl initialShadingGroup
f 66/128/99 65/68/100 93/71/101 92/129/102
s 2
f 65/68/103 70/159/104 94/70/105 93/71/106
s 3
f 68/148/107 67/130/108 75/134/109 74/149/110
s 1
f 67/130/111 66/128/99 76/133/112 75/134/113
s 2
f 70/69/104 69/72/114 78/78/115 77/74/116
s 3
f 69/72/117 68/148/107 79/151/118 78/78/119
s 4
f 72/98/120 71/99/121 101/100/122 100/101/123
s 1
f 71/99/124 76/133/112 102/132/125 101/100/126
s 3
f 74/149/110 73/102/127 81/108/128 80/150/129
s 4
f 73/102/130 72/156/120 82/157/131 81/108/132
s 2
f 85/75/133 84/79/134 95/76/135 94/70/105
f 84/79/134 83/82/136 96/80/137 95/76/135
s 4
f 88/112/138 87/109/139 99/104/140 98/111/141
f 87/109/139 86/106/142 100/101/123 99/104/140
s 1
f 90/136/143 89/81/144 123/84/145 122/138/146
s 2
f 89/81/147 96/80/137 124/83/148 123/84/149
s 1
f 92/129/102 91/131/150 103/135/151 102/132/125
f 91/131/150 90/136/143 104/137/152 103/135/151
s 4
f 98/111/141 97/110/153 115/113/154 114/114/155
s 1
f 97/110/156 104/137/152 116/139/157 115/113/158
s 2
f 107/85/159 106/88/160 125/86/161 124/83/148
f 106/88/160 105/91/162 126/89/163 125/86/161
s 4
f 110/121/164 109/118/165 113/116/166 112/120/167
f 109/118/165 108/115/168 114/114/155 113/116/166
f 112/120/167 111/119/169 137/122/170 136/123/171
s 1
f 111/119/172 118/143/173 138/145/174 137/122/175
f 118/143/173 117/141/176 121/140/177 120/142/178
f 117/141/176 116/139/157 122/138/146 121/140/177
f 120/142/178 119/90/179 143/93/180 142/144/181
s 2
f 119/90/182 126/89/163 144/92/183 143/93/184
f 128/94/185 127/97/186 139/95/187 144/92/183
s 1
f 127/162/188 129/152/189 140/153/190 139/95/191
f 131/154/192 130/127/193 135/161/194 134/155/195
s 4
f 130/160/196 132/124/197 136/123/171 135/125/198
s 1
f 134/155/195 133/147/199 141/146/200 140/153/190
f 133/147/199 138/145/174 142/144/181 141/146/200
s 3
f 68/148/107 74/149/110 80/150/129 79/151/118
s 1
f 129/152/189 131/154/192 134/155/195 140/153/190
f 92/129/102 102/132/125 76/133/112 66/128/99
s 4
f 72/98/120 100/101/123 86/106/142 82/107/131
s 2
f 94/70/105 70/159/104 77/158/116 85/75/133
s 4
f 88/112/138 98/111/141 114/114/155 108/115/168
s 1
f 104/137/152 90/136/143 122/138/146 116/139/157
s 2
f 96/80/137 83/82/136 107/85/159 124/83/148
s 4
f 110/121/164 112/120/167 136/123/171 132/124/197
s 1
f 118/143/173 120/142/178 142/144/181 138/145/174
s 2
f 126/89/163 105/91/162 128/94/185 144/92/183
f 69/72/114 70/69/104 65/68/103 145/73/201
s 1
f 65/68/100 66/128/99 67/130/111 145/73/202
s 3
f 67/130/108 68/148/107 69/72/117 145/73/203
s 1
f 75/134/113 76/133/112 71/99/124 146/103/204
s 4
f 71/99/121 72/156/120 73/102/130 146/103/205
s 3
f 73/102/127 74/149/110 75/134/109 146/103/206
s 2
f 95/76/135 96/80/137 89/81/147 147/77/207
s 1
f 89/81/144 90/136/143 91/131/150 147/77/208
f 91/131/150 92/129/102 93/71/101 147/77/208
s 2
f 93/71/106 94/70/105 95/76/135 147/77/207
s 1
f 103/135/151 104/137/152 97/110/156 148/105/209
s 4
f 97/110/153 98/111/141 99/104/140 148/105/210
f 99/104/140 100/101/123 101/100/122 148/105/210
s 1
f 101/100/126 102/132/125 103/135/151 148/105/209
f 117/141/176 118/143/173 111/119/172 149/117/211
s 4
f 111/119/169 112/120/167 113/116/166 149/117/212
f 113/116/166 114/114/155 115/113/154 149/117/212
s 1
f 115/113/158 116/139/157 117/141/176 149/117/211
s 2
f 125/86/161 126/89/163 119/90/182 150/87/213
s 1
f 119/90/179 120/142/178 121/140/177 150/87/214
f 121/140/177 122/138/146 123/84/145 150/87/214
s 2
f 123/84/149 124/83/148 125/86/161 150/87/213
s 1
f 137/122/175 138/145/174 133/147/199 151/126/215
f 133/147/199 134/155/195 135/161/194 151/126/215
s 4
f 135/125/198 136/123/171 137/122/170 151/126/216
s 2
f 143/93/184 144/92/183 139/95/187 152/96/217
s 1
f 139/95/191 140/153/190 141/146/200 152/96/218
f 141/146/200 142/144/181 143/93/180 152/96/218
