# This file uses centimeters as units for non-parametric coordinates.

mtllib column middle.mtl
g default
v -0.500000 0.000000 0.400010
v -0.400010 0.000000 0.500000
v -0.438275 -0.000000 0.492389
v -0.470714 -0.000000 0.470714
v -0.492389 -0.000000 0.438275
v -0.500000 1.000000 0.400010
v -0.492389 1.000000 0.438275
v -0.470714 1.000000 0.470714
v -0.438275 1.000000 0.492389
v -0.400010 1.000000 0.500000
v 0.500000 0.000000 0.400010
v 0.492389 0.000000 0.438275
v 0.470714 0.000000 0.470714
v 0.438275 0.000000 0.492389
v 0.400010 0.000000 0.500000
v 0.500000 1.000000 0.400010
v 0.400010 1.000000 0.500000
v 0.438275 1.000000 0.492389
v 0.470714 1.000000 0.470714
v 0.492389 1.000000 0.438275
v -0.438275 1.000000 -0.492389
v -0.470714 1.000000 -0.470714
v -0.492389 1.000000 -0.438275
v -0.500000 1.000000 -0.400010
v -0.400010 1.000000 -0.500000
v -0.500000 0.000000 -0.400010
v -0.492389 0.000000 -0.438275
v -0.470714 0.000000 -0.470714
v -0.438275 0.000000 -0.492389
v -0.400010 0.000000 -0.500000
v 0.492389 1.000000 -0.438275
v 0.470714 1.000000 -0.470714
v 0.438275 1.000000 -0.492389
v 0.400010 1.000000 -0.500000
v 0.500000 1.000000 -0.400010
v 0.500000 0.000000 -0.400010
v 0.400010 0.000000 -0.500000
v 0.438275 0.000000 -0.492389
v 0.470714 0.000000 -0.470714
v 0.492389 0.000000 -0.438275
v 0.470714 1.000000 -0.400010
v 0.470714 0.000000 -0.400010
v 0.470714 1.000000 0.400010
v 0.470714 0.000000 0.400010
v -0.470714 1.000000 0.400010
v -0.470714 0.000000 0.400010
v -0.400010 1.000000 0.470714
v -0.400010 1.000000 0.400010
v -0.400010 0.000000 0.470714
v -0.400010 0.000000 0.400010
v 0.400010 1.000000 0.470714
v 0.400010 1.000000 0.400010
v 0.400010 0.000000 0.470714
v 0.400010 0.000000 0.400010
v 0.400010 1.000000 -0.470714
v 0.400010 1.000000 -0.400010
v 0.400010 0.000000 -0.470714
v 0.400010 0.000000 -0.400010
v -0.400010 1.000000 -0.470714
v -0.400010 1.000000 -0.400010
v -0.400010 0.000000 -0.470714
v -0.400010 0.000000 -0.400010
v -0.470714 1.000000 -0.400010
v -0.470714 0.000000 -0.400010
vt 0.588477 0.037983
vt 0.588477 0.273328
vt 0.400196 0.273328
vt 0.400196 0.037983
vt 0.597482 0.273328
vt 0.597482 0.037983
vt 0.391190 0.037983
vt 0.391190 0.273328
vt 0.605117 0.273328
vt 0.605117 0.037983
vt 0.383556 0.037983
vt 0.383556 0.273328
vt 0.610218 0.273328
vt 0.610218 0.037983
vt 0.378455 0.037983
vt 0.378455 0.273328
vt 0.400196 0.744019
vt 0.400196 0.508673
vt 0.588477 0.508673
vt 0.588477 0.744019
vt 0.391190 0.744019
vt 0.391190 0.508673
vt 0.597482 0.508673
vt 0.597482 0.744019
vt 0.383556 0.744019
vt 0.383556 0.508673
vt 0.605116 0.508673
vt 0.605116 0.744019
vt 0.378455 0.744019
vt 0.378455 0.508673
vt 0.610218 0.508673
vt 0.610218 0.744019
vt 0.391190 0.977573
vt 0.383556 0.972472
vt 0.400196 0.972472
vt 0.400196 0.979364
vt 0.383556 0.955832
vt 0.400196 0.955832
vt 0.588477 0.972472
vt 0.588477 0.979364
vt 0.376664 0.955832
vt 0.378455 0.964837
vt 0.383556 0.767551
vt 0.400196 0.767551
vt 0.588477 0.955832
vt 0.605117 0.972472
vt 0.597482 0.977573
vt 0.376664 0.767551
vt 0.383556 0.750911
vt 0.400196 0.750911
vt 0.588477 0.767551
vt 0.605117 0.955832
vt 0.378455 0.758545
vt 0.391190 0.745810
vt 0.588477 0.750911
vt 0.605116 0.767551
vt 0.612009 0.955832
vt 0.610218 0.964837
vt 0.605117 0.750911
vt 0.612009 0.767551
vt 0.597482 0.745810
vt 0.610218 0.758545
vt 0.400196 0.280221
vt 0.588477 0.280221
vt 0.588477 0.296860
vt 0.400196 0.296860
vt 0.605116 0.296860
vt 0.605116 0.280221
vt 0.588477 0.485141
vt 0.400196 0.485141
vt 0.383556 0.280221
vt 0.383556 0.296860
vt 0.597482 0.275119
vt 0.391190 0.275119
vt 0.605116 0.485141
vt 0.612009 0.296860
vt 0.610218 0.287855
vt 0.588477 0.501781
vt 0.400196 0.501781
vt 0.383556 0.485141
vt 0.376664 0.296860
vt 0.378455 0.287855
vt 0.605116 0.501781
vt 0.612009 0.485141
vt 0.383556 0.501781
vt 0.376664 0.485141
vt 0.597482 0.506882
vt 0.610218 0.494147
vt 0.391190 0.506882
vt 0.378455 0.494147
vt 0.619223 0.744019
vt 0.619223 0.508673
vt 0.807504 0.508673
vt 0.807504 0.744019
vt 0.816509 0.508673
vt 0.816509 0.744019
vt 0.369449 0.508673
vt 0.369449 0.744019
vt 0.181169 0.744019
vt 0.181169 0.508673
vt 0.172163 0.744019
vt 0.172163 0.508673
vn -0.009079 0.000000 0.999959
vn -0.009079 0.000000 0.999959
vn 0.009079 0.000000 0.999959
vn 0.009079 0.000000 0.999959
vn -0.009079 0.000000 -0.999959
vn -0.009079 0.000000 -0.999959
vn 0.009079 0.000000 -0.999959
vn 0.009079 0.000000 -0.999959
vn 0.999959 0.000000 0.009079
vn 0.999959 0.000000 0.009079
vn 0.999959 0.000000 -0.009079
vn 0.999959 0.000000 -0.009079
vn -0.999959 0.000000 -0.009079
vn -0.999959 0.000000 -0.009079
vn -0.999959 0.000000 0.009079
vn -0.999959 0.000000 0.009079
vn -0.923880 0.000000 0.382683
vn -0.923880 0.000000 0.382683
vn -0.707107 0.000000 0.707107
vn -0.707107 0.000000 0.707107
vn -0.382683 0.000000 0.923880
vn -0.382683 0.000000 0.923880
vn 0.382683 0.000000 0.923880
vn 0.382683 0.000000 0.923880
vn 0.707107 0.000000 0.707107
vn 0.707107 0.000000 0.707107
vn 0.923880 0.000000 0.382683
vn 0.923880 0.000000 0.382683
vn -0.923880 0.000000 -0.382683
vn -0.923880 0.000000 -0.382683
vn -0.707107 0.000000 -0.707107
vn -0.707107 0.000000 -0.707107
vn -0.382683 0.000000 -0.923880
vn -0.382683 0.000000 -0.923880
vn 0.382683 0.000000 -0.923880
vn 0.382683 0.000000 -0.923880
vn 0.707107 0.000000 -0.707107
vn 0.707107 0.000000 -0.707107
vn 0.923880 0.000000 -0.382683
vn 0.923880 0.000000 -0.382683
vn 0.000000 1.000000 0.000000
vn 0.000000 1.000000 0.000000
vn 0.000000 1.000000 0.000000
vn 0.000000 1.000000 0.000000
vn 0.000000 -1.000000 0.000000
vn 0.000000 -1.000000 0.000000
vn 0.000000 -1.000000 0.000000
vn 0.000000 -1.000000 -0.000000
vn 0.000000 -1.000000 0.000000
vn 0.000000 -1.000000 -0.000001
vn 0.000000 -1.000000 0.000000
vn 0.000000 -1.000000 0.000000
vn 0.000000 1.000000 0.000000
vn 0.000000 1.000000 -0.000000
vn -0.000000 1.000000 -0.000000
vn 0.000000 1.000000 0.000000
vn 0.000000 1.000000 0.000000
vn 0.000000 1.000000 -0.000001
vn 0.000000 1.000000 0.000000
vn 0.000000 -1.000000 0.000000
vn 0.000000 -1.000000 0.000000
vn 0.000000 -1.000000 0.000000
vn 0.000000 1.000000 -0.000000
vn 0.000000 -1.000000 0.000000
vn 0.000000 -1.000000 0.000000
vn 0.000000 -1.000000 0.000000
vn 0.000000 1.000000 -0.000000
vn 0.000000 1.000000 -0.000000
vn -0.000000 1.000000 0.000000
vn -0.000000 1.000000 0.000000
vn 0.000000 -1.000000 0.000000
vn 0.000000 -1.000000 0.000000
vn 0.000000 -1.000000 0.000000
vn -0.000001 1.000000 0.000000
vn -0.000001 1.000000 -0.000001
vn 0.000000 -1.000000 0.000000
vn 0.000000 -1.000000 0.000000
vn 0.000000 -1.000000 0.000000
vn 0.000000 1.000000 0.000000
vn 0.000000 1.000000 0.000000
vn 0.000000 1.000000 0.000000
vn 0.000000 1.000000 0.000000
vn 0.000000 -1.000000 -0.000000
vn 0.000000 -1.000000 -0.000000
vn 0.000001 -1.000000 -0.000000
vn 0.000001 -1.000000 -0.000001
vn 0.000000 1.000000 0.000000
vn 0.000000 1.000000 -0.000000
vn 0.000000 1.000000 -0.000000
vn 0.000000 -1.000000 0.000000
vn 0.000000 -1.000000 -0.000000
vn 0.000001 -1.000000 -0.000001
vn 0.000000 -1.000000 0.000000
vn 0.000000 1.000000 0.000000
vn 0.000000 1.000000 0.000000
vn 0.000000 1.000000 -0.000001
vn 0.000000 -1.000000 -0.000001
vn 0.000000 -1.000000 0.000000
vn 0.000000 -1.000000 0.000000
vn 0.000000 1.000000 0.000000
vn 0.000000 1.000000 0.000000
vn 0.000000 -1.000000 -0.000000
vn 0.000000 1.000000 0.000000
vn -0.000001 1.000000 0.000000
s 1
g pasted__pCube1
usemtl initialShadingGroup
f 10/91/1 2/92/2 15/93/3 17/94/4
f 30/97/5 25/98/6 34/99/7 37/100/8
f 16/1/9 11/2/10 36/3/11 35/4/12
f 24/17/13 26/18/14 1/19/15 6/20/16
f 1/19/15 5/23/17 7/24/18 6/20/16
f 5/23/17 4/27/19 8/28/20 7/24/18
f 4/27/19 3/31/21 9/32/22 8/28/20
f 3/31/21 2/92/2 10/91/1 9/32/22
f 15/93/3 14/95/23 18/96/24 17/94/4
f 14/13/23 13/9/25 19/10/26 18/14/24
f 13/9/25 12/5/27 20/6/28 19/10/26
f 12/5/27 11/2/10 16/1/9 20/6/28
f 24/17/13 23/21/29 27/22/30 26/18/14
f 23/21/29 22/25/31 28/26/32 27/22/30
f 22/25/31 21/29/33 29/30/34 28/26/32
f 21/29/33 25/98/6 30/97/5 29/30/34
f 34/99/7 33/101/35 38/102/36 37/100/8
f 33/15/35 32/11/37 39/12/38 38/16/36
f 32/11/37 31/7/39 40/8/40 39/12/38
f 31/7/39 35/4/12 36/3/11 40/8/40
s 5
f 31/33/41 32/34/42 41/35/43 35/36/44
s 6
f 42/63/45 44/64/46 54/65/47 58/66/48
f 30/86/49 61/80/50 28/85/51 29/90/52
s 5
f 10/60/53 47/56/54 8/59/55 9/62/56
f 34/41/57 55/37/58 32/34/42 33/42/59
s 6
f 28/85/51 64/79/60 26/18/61 27/89/62
s 5
f 41/35/43 32/34/42 55/37/58 56/38/63
s 6
f 36/3/64 42/63/45 39/71/65 40/74/66
s 5
f 48/51/67 60/44/68 63/50/69 45/55/70
s 6
f 13/68/71 44/64/46 11/2/72 12/73/73
s 5
f 8/59/55 45/55/70 6/20/74 7/61/75
s 6
f 15/76/76 53/67/77 13/68/71 14/77/78
s 5
f 16/40/79 43/39/80 19/46/81 20/47/82
s 6
f 53/67/77 54/65/47 44/64/46 13/68/71
s 5
f 47/56/54 48/51/67 45/55/70 8/59/55
s 6
f 1/19/83 46/78/84 4/83/85 5/87/86
s 5
f 17/57/87 51/52/88 47/56/54 10/60/53
f 51/52/88 52/45/89 48/51/67 47/56/54
s 6
f 4/83/85 49/75/90 2/84/91 3/88/92
f 4/83/85 46/78/84 50/69/93 49/75/90
s 5
f 19/46/81 51/52/88 17/57/87 18/58/94
f 19/46/81 43/39/80 52/45/89 51/52/88
s 6
f 2/84/91 49/75/90 53/67/77 15/76/76
f 49/75/90 50/69/93 54/65/47 53/67/77
s 5
f 25/48/95 59/43/96 55/37/58 34/41/57
f 56/38/63 55/37/58 59/43/96 60/44/68
s 6
f 39/71/65 57/72/97 37/81/98 38/82/99
f 39/71/65 42/63/45 58/66/48 57/72/97
s 5
f 22/49/100 59/43/96 25/48/95 21/53/101
f 60/44/68 59/43/96 22/49/100 63/50/69
s 6
f 37/81/98 57/72/97 61/80/50 30/86/49
f 57/72/97 58/66/48 62/70/102 61/80/50
s 5
f 52/45/89 56/38/63 60/44/68 48/51/67
s 6
f 64/79/60 46/78/84 1/19/83 26/18/61
s 5
f 35/36/44 41/35/43 43/39/80 16/40/79
s 6
f 58/66/48 54/65/47 50/69/93 62/70/102
s 5
f 43/39/80 41/35/43 56/38/63 52/45/89
s 6
f 36/3/64 11/2/72 44/64/46 42/63/45
s 5
f 63/50/69 22/49/100 23/54/103 24/17/104
f 45/55/70 63/50/69 24/17/104 6/20/74
s 6
f 61/80/50 62/70/102 64/79/60 28/85/51
f 62/70/102 50/69/93 46/78/84 64/79/60
