# This file uses centimeters as units for non-parametric coordinates.

mtllib stage1.mtl
g default
v 0.000000 1.000000 -0.000000
v 24.771448 1.000000 -3.733678
v 23.938296 1.000000 -7.383970
v 22.570403 1.000000 -10.869316
v 20.698323 1.000000 -14.111858
v 18.363877 1.000000 -17.039166
v 15.619210 1.000000 -19.585846
v 12.525638 1.000000 -21.695011
v 9.152264 1.000000 -23.319547
v 5.574442 1.000000 -24.423162
v 1.872097 1.000000 -24.981204
v -1.872069 1.000000 -24.981205
v -5.574416 1.000000 -24.423171
v -9.152239 1.000000 -23.319560
v -12.525617 1.000000 -21.695031
v -15.619194 1.000000 -19.585870
v -18.363864 1.000000 -17.039192
v -20.698313 1.000000 -14.111886
v -22.570400 1.000000 -10.869343
v -23.938301 1.000000 -7.383997
v -24.771456 1.000000 -3.733706
v -25.051261 1.000000 -0.000009
v -24.771461 1.000000 3.733689
v -23.938305 1.000000 7.383982
v -22.570412 1.000000 10.869328
v -20.698329 1.000000 14.111873
v -18.363879 1.000000 17.039181
v -15.619213 1.000000 19.585862
v -12.525638 1.000000 21.695028
v -9.152260 1.000000 23.319563
v -5.574436 1.000000 24.423177
v -1.872088 1.000000 24.981217
v 1.872079 1.000000 24.981219
v 5.574427 1.000000 24.423180
v 9.152253 1.000000 23.319569
v 12.525632 1.000000 21.695038
v 15.619207 1.000000 19.585873
v 18.363879 1.000000 17.039193
v 20.698329 1.000000 14.111883
v 22.570415 1.000000 10.869340
v 23.938313 1.000000 7.383992
v 24.771470 1.000000 3.733699
v 25.051271 1.000000 0.000000
vt 0.654505 0.867038
vt 0.649308 0.889805
vt 0.500000 0.843750
vt 0.640776 0.911544
vt 0.629100 0.931769
vt 0.614539 0.950027
vt 0.597420 0.965911
vt 0.578125 0.979066
vt 0.557085 0.989199
vt 0.534769 0.996082
vt 0.511677 0.999563
vt 0.488323 0.999563
vt 0.465231 0.996082
vt 0.442915 0.989199
vt 0.421875 0.979066
vt 0.402580 0.965911
vt 0.385461 0.950027
vt 0.370900 0.931769
vt 0.359224 0.911544
vt 0.350692 0.889805
vt 0.345495 0.867038
vt 0.343750 0.843750
vt 0.345495 0.820462
vt 0.350692 0.797695
vt 0.359224 0.775956
vt 0.370900 0.755731
vt 0.385461 0.737473
vt 0.402580 0.721589
vt 0.421875 0.708434
vt 0.442915 0.698301
vt 0.465231 0.691418
vt 0.488323 0.687937
vt 0.511677 0.687937
vt 0.534769 0.691418
vt 0.557085 0.698301
vt 0.578125 0.708434
vt 0.597420 0.721589
vt 0.614539 0.737473
vt 0.629100 0.755731
vt 0.640776 0.775956
vt 0.649308 0.797695
vt 0.654505 0.820462
vt 0.656250 0.843750
vn 0.000000 1.000000 0.000000
vn 0.000000 1.000000 0.000000
vn 0.000000 1.000000 0.000000
vn 0.000000 1.000000 0.000000
vn 0.000000 1.000000 0.000000
vn 0.000000 1.000000 0.000000
vn 0.000000 1.000000 0.000000
vn 0.000000 1.000000 0.000000
vn 0.000000 1.000000 0.000000
vn 0.000000 1.000000 0.000000
vn 0.000000 1.000000 0.000000
vn 0.000000 1.000000 0.000000
vn 0.000000 1.000000 0.000000
vn 0.000000 1.000000 0.000000
vn 0.000000 1.000000 0.000000
vn 0.000000 1.000000 0.000000
vn 0.000000 1.000000 0.000000
vn 0.000000 1.000000 0.000000
vn 0.000000 1.000000 0.000000
vn 0.000000 1.000000 0.000000
vn 0.000000 1.000000 0.000000
vn 0.000000 1.000000 0.000000
vn 0.000000 1.000000 0.000000
vn 0.000000 1.000000 0.000000
vn 0.000000 1.000000 0.000000
vn 0.000000 1.000000 0.000000
vn 0.000000 1.000000 0.000000
vn 0.000000 1.000000 0.000000
vn 0.000000 1.000000 0.000000
vn 0.000000 1.000000 0.000000
vn 0.000000 1.000000 0.000000
vn 0.000000 1.000000 0.000000
vn 0.000000 1.000000 -0.000000
vn 0.000000 1.000000 -0.000000
vn 0.000000 1.000000 0.000000
vn 0.000000 1.000000 0.000000
vn 0.000000 1.000000 0.000000
vn 0.000000 1.000000 0.000000
vn 0.000000 1.000000 0.000000
vn 0.000000 1.000000 0.000000
vn 0.000000 1.000000 0.000000
vn 0.000000 1.000000 0.000000
vn 0.000000 1.000000 0.000000
s 1
g polySurface2 pCylinder1
usemtl lambert2SG
f 2/1/1 3/2/2 1/3/3
f 3/2/2 4/4/4 1/3/3
f 4/4/4 5/5/5 1/3/3
f 5/5/5 6/6/6 1/3/3
f 6/6/6 7/7/7 1/3/3
f 7/7/7 8/8/8 1/3/3
f 8/8/8 9/9/9 1/3/3
f 9/9/9 10/10/10 1/3/3
f 10/10/10 11/11/11 1/3/3
f 11/11/11 12/12/12 1/3/3
f 12/12/12 13/13/13 1/3/3
f 13/13/13 14/14/14 1/3/3
f 14/14/14 15/15/15 1/3/3
f 15/15/15 16/16/16 1/3/3
f 16/16/16 17/17/17 1/3/3
f 17/17/17 18/18/18 1/3/3
f 18/18/18 19/19/19 1/3/3
f 19/19/19 20/20/20 1/3/3
f 20/20/20 21/21/21 1/3/3
f 21/21/21 22/22/22 1/3/3
f 22/22/22 23/23/23 1/3/3
f 23/23/23 24/24/24 1/3/3
f 24/24/24 25/25/25 1/3/3
f 25/25/25 26/26/26 1/3/3
f 26/26/26 27/27/27 1/3/3
f 27/27/27 28/28/28 1/3/3
f 28/28/28 29/29/29 1/3/3
f 29/29/29 30/30/30 1/3/3
f 30/30/30 31/31/31 1/3/3
f 31/31/31 32/32/32 1/3/3
f 32/32/32 33/33/33 1/3/3
f 33/33/33 34/34/34 1/3/3
f 34/34/34 35/35/35 1/3/3
f 35/35/35 36/36/36 1/3/3
f 36/36/36 37/37/37 1/3/3
f 37/37/37 38/38/38 1/3/3
f 38/38/38 39/39/39 1/3/3
f 39/39/39 40/40/40 1/3/3
f 40/40/40 41/41/41 1/3/3
f 41/41/41 42/42/42 1/3/3
f 42/42/42 43/43/43 1/3/3
f 43/43/43 2/1/1 1/3/3
g default
v 24.771448 -1.000000 -3.733678
v 23.938296 -1.000000 -7.383970
v 22.570403 -1.000000 -10.869316
v 20.698323 -1.000000 -14.111858
v 18.363877 -1.000000 -17.039166
v 15.619210 -1.000000 -19.585846
v 12.525638 -1.000000 -21.695011
v 9.152264 -1.000000 -23.319547
v 5.574442 -1.000000 -24.423162
v 1.872097 -1.000000 -24.981204
v -1.872069 -1.000000 -24.981205
v -5.574416 -1.000000 -24.423171
v -9.152239 -1.000000 -23.319560
v -12.525617 -1.000000 -21.695031
v -15.619194 -1.000000 -19.585870
v -18.363864 -1.000000 -17.039192
v -20.698313 -1.000000 -14.111886
v -22.570400 -1.000000 -10.869343
v -23.938301 -1.000000 -7.383997
v -24.771456 -1.000000 -3.733706
v -25.051261 -1.000000 -0.000009
v -24.771461 -1.000000 3.733689
v -23.938305 -1.000000 7.383982
v -22.570412 -1.000000 10.869328
v -20.698329 -1.000000 14.111873
v -18.363879 -1.000000 17.039181
v -15.619213 -1.000000 19.585862
v -12.525638 -1.000000 21.695028
v -9.152260 -1.000000 23.319563
v -5.574436 -1.000000 24.423177
v -1.872088 -1.000000 24.981217
v 1.872079 -1.000000 24.981219
v 5.574427 -1.000000 24.423180
v 9.152253 -1.000000 23.319569
v 12.525632 -1.000000 21.695038
v 15.619207 -1.000000 19.585873
v 18.363879 -1.000000 17.039193
v 20.698329 -1.000000 14.111883
v 22.570415 -1.000000 10.869340
v 23.938313 -1.000000 7.383992
v 24.771470 -1.000000 3.733699
v 25.051271 -1.000000 0.000000
v 24.771448 1.000000 -3.733678
v 23.938296 1.000000 -7.383970
v 22.570403 1.000000 -10.869316
v 20.698323 1.000000 -14.111858
v 18.363877 1.000000 -17.039166
v 15.619210 1.000000 -19.585846
v 12.525638 1.000000 -21.695011
v 9.152264 1.000000 -23.319547
v 5.574442 1.000000 -24.423162
v 1.872097 1.000000 -24.981204
v -1.872069 1.000000 -24.981205
v -5.574416 1.000000 -24.423171
v -9.152239 1.000000 -23.319560
v -12.525617 1.000000 -21.695031
v -15.619194 1.000000 -19.585870
v -18.363864 1.000000 -17.039192
v -20.698313 1.000000 -14.111886
v -22.570400 1.000000 -10.869343
v -23.938301 1.000000 -7.383997
v -24.771456 1.000000 -3.733706
v -25.051261 1.000000 -0.000009
v -24.771461 1.000000 3.733689
v -23.938305 1.000000 7.383982
v -22.570412 1.000000 10.869328
v -20.698329 1.000000 14.111873
v -18.363879 1.000000 17.039181
v -15.619213 1.000000 19.585862
v -12.525638 1.000000 21.695028
v -9.152260 1.000000 23.319563
v -5.574436 1.000000 24.423177
v -1.872088 1.000000 24.981217
v 1.872079 1.000000 24.981219
v 5.574427 1.000000 24.423180
v 9.152253 1.000000 23.319569
v 12.525632 1.000000 21.695038
v 15.619207 1.000000 19.585873
v 18.363879 1.000000 17.039193
v 20.698329 1.000000 14.111883
v 22.570415 1.000000 10.869340
v 23.938313 1.000000 7.383992
v 24.771470 1.000000 3.733699
v 25.051271 1.000000 0.000000
v 0.000000 -1.000000 0.000000
vt 0.375000 0.312500
vt 0.380952 0.312500
vt 0.380952 0.687500
vt 0.375000 0.687500
vt 0.386905 0.312500
vt 0.386905 0.687500
vt 0.392857 0.312500
vt 0.392857 0.687500
vt 0.398810 0.312500
vt 0.398810 0.687500
vt 0.404762 0.312500
vt 0.404762 0.687500
vt 0.410714 0.312500
vt 0.410714 0.687500
vt 0.416667 0.312500
vt 0.416667 0.687500
vt 0.422619 0.312500
vt 0.422619 0.687500
vt 0.428571 0.312500
vt 0.428571 0.687500
vt 0.434524 0.312500
vt 0.434524 0.687500
vt 0.440476 0.312500
vt 0.440476 0.687500
vt 0.446429 0.312500
vt 0.446429 0.687500
vt 0.452381 0.312500
vt 0.452381 0.687500
vt 0.458333 0.312500
vt 0.458333 0.687500
vt 0.464286 0.312500
vt 0.464286 0.687500
vt 0.470238 0.312500
vt 0.470238 0.687500
vt 0.476191 0.312500
vt 0.476191 0.687500
vt 0.482143 0.312500
vt 0.482143 0.687500
vt 0.488095 0.312500
vt 0.488095 0.687500
vt 0.494048 0.312500
vt 0.494048 0.687500
vt 0.500000 0.312500
vt 0.500000 0.687500
vt 0.505952 0.312500
vt 0.505952 0.687500
vt 0.511905 0.312500
vt 0.511905 0.687500
vt 0.517857 0.312500
vt 0.517857 0.687500
vt 0.523810 0.312500
vt 0.523810 0.687500
vt 0.529762 0.312500
vt 0.529762 0.687500
vt 0.535714 0.312500
vt 0.535714 0.687500
vt 0.541667 0.312500
vt 0.541667 0.687500
vt 0.547619 0.312500
vt 0.547619 0.687500
vt 0.553571 0.312500
vt 0.553571 0.687500
vt 0.559524 0.312500
vt 0.559524 0.687500
vt 0.565476 0.312500
vt 0.565476 0.687500
vt 0.571428 0.312500
vt 0.571428 0.687500
vt 0.577381 0.312500
vt 0.577381 0.687500
vt 0.583333 0.312500
vt 0.583333 0.687500
vt 0.589285 0.312500
vt 0.589285 0.687500
vt 0.595238 0.312500
vt 0.595238 0.687500
vt 0.601190 0.312500
vt 0.601190 0.687500
vt 0.607143 0.312500
vt 0.607143 0.687500
vt 0.613095 0.312500
vt 0.613095 0.687500
vt 0.619047 0.312500
vt 0.619047 0.687500
vt 0.625000 0.312500
vt 0.625000 0.687500
vt 0.649308 0.110195
vt 0.654505 0.132962
vt 0.500000 0.156250
vt 0.640776 0.088456
vt 0.629100 0.068231
vt 0.614539 0.049973
vt 0.597420 0.034089
vt 0.578125 0.020934
vt 0.557085 0.010801
vt 0.534769 0.003918
vt 0.511677 0.000437
vt 0.488323 0.000437
vt 0.465231 0.003918
vt 0.442915 0.010801
vt 0.421875 0.020934
vt 0.402580 0.034089
vt 0.385461 0.049973
vt 0.370900 0.068231
vt 0.359224 0.088456
vt 0.350692 0.110195
vt 0.345495 0.132962
vt 0.343750 0.156250
vt 0.345495 0.179538
vt 0.350692 0.202305
vt 0.359224 0.224044
vt 0.370900 0.244269
vt 0.385461 0.262527
vt 0.402580 0.278411
vt 0.421875 0.291566
vt 0.442915 0.301699
vt 0.465231 0.308582
vt 0.488323 0.312063
vt 0.511677 0.312063
vt 0.534769 0.308582
vt 0.557085 0.301699
vt 0.578125 0.291566
vt 0.597420 0.278411
vt 0.614539 0.262527
vt 0.629100 0.244269
vt 0.640776 0.224044
vt 0.649308 0.202305
vt 0.654505 0.179538
vt 0.656250 0.156250
vn 0.988830 0.000000 -0.149045
vn 0.955573 0.000000 -0.294754
vn 0.955573 0.000000 -0.294754
vn 0.988830 0.000000 -0.149045
vn 0.900969 0.000000 -0.433883
vn 0.900969 0.000000 -0.433883
vn 0.826239 0.000000 -0.563319
vn 0.826239 0.000000 -0.563319
vn 0.733052 0.000000 -0.680172
vn 0.733052 0.000000 -0.680172
vn 0.623490 0.000000 -0.781831
vn 0.623490 0.000000 -0.781831
vn 0.500001 0.000000 -0.866025
vn 0.500001 0.000000 -0.866025
vn 0.365342 0.000000 -0.930873
vn 0.365342 0.000000 -0.930873
vn 0.222522 0.000000 -0.974928
vn 0.222522 0.000000 -0.974928
vn 0.074731 0.000000 -0.997204
vn 0.074731 0.000000 -0.997204
vn -0.074729 0.000000 -0.997204
vn -0.074729 0.000000 -0.997204
vn -0.222520 0.000000 -0.974928
vn -0.222520 0.000000 -0.974928
vn -0.365340 0.000000 -0.930874
vn -0.365340 0.000000 -0.930874
vn -0.499999 0.000000 -0.866026
vn -0.499999 0.000000 -0.866026
vn -0.623489 0.000000 -0.781832
vn -0.623489 0.000000 -0.781832
vn -0.733052 0.000000 -0.680173
vn -0.733052 0.000000 -0.680173
vn -0.826238 0.000000 -0.563320
vn -0.826238 0.000000 -0.563320
vn -0.900968 0.000000 -0.433884
vn -0.900968 0.000000 -0.433884
vn -0.955573 0.000000 -0.294756
vn -0.955573 0.000000 -0.294756
vn -0.988831 0.000000 -0.149043
vn -0.988831 0.000000 -0.149043
vn -1.000000 0.000000 -0.000001
vn -1.000000 0.000000 -0.000001
vn -0.988831 0.000000 0.149042
vn -0.988831 0.000000 0.149042
vn -0.955573 0.000000 0.294755
vn -0.955573 0.000000 0.294755
vn -0.900969 0.000000 0.433883
vn -0.900969 0.000000 0.433883
vn -0.826239 0.000000 0.563320
vn -0.826239 0.000000 0.563320
vn -0.733052 0.000000 0.680172
vn -0.733052 0.000000 0.680172
vn -0.623490 0.000000 0.781831
vn -0.623490 0.000000 0.781831
vn -0.500000 0.000000 0.866025
vn -0.500000 0.000000 0.866025
vn -0.365341 0.000000 0.930874
vn -0.365341 0.000000 0.930874
vn -0.222521 0.000000 0.974928
vn -0.222521 0.000000 0.974928
vn -0.074730 0.000000 0.997204
vn -0.074730 0.000000 0.997204
vn 0.074730 0.000000 0.997204
vn 0.074730 0.000000 0.997204
vn 0.222521 0.000000 0.974928
vn 0.222521 0.000000 0.974928
vn 0.365340 0.000000 0.930874
vn 0.365340 0.000000 0.930874
vn 0.500000 0.000000 0.866026
vn 0.500000 0.000000 0.866026
vn 0.623490 0.000000 0.781832
vn 0.623490 0.000000 0.781832
vn 0.733052 0.000000 0.680173
vn 0.733052 0.000000 0.680173
vn 0.826239 0.000000 0.563320
vn 0.826239 0.000000 0.563320
vn 0.900969 0.000000 0.433884
vn 0.900969 0.000000 0.433884
vn 0.955573 0.000000 0.294755
vn 0.955573 0.000000 0.294755
vn 0.988831 0.000000 0.149042
vn 0.988831 0.000000 0.149042
vn 1.000000 0.000000 -0.000003
vn 1.000000 0.000000 -0.000003
vn 0.000000 -1.000000 0.000000
vn 0.000000 -1.000000 0.000000
vn 0.000000 -1.000000 0.000000
vn 0.000000 -1.000000 0.000000
vn 0.000000 -1.000000 0.000000
vn 0.000000 -1.000000 0.000000
vn 0.000000 -1.000000 0.000000
vn 0.000000 -1.000000 0.000000
vn 0.000000 -1.000000 0.000000
vn 0.000000 -1.000000 0.000000
vn 0.000000 -1.000000 0.000000
vn 0.000000 -1.000000 0.000000
vn 0.000000 -1.000000 0.000000
vn 0.000000 -1.000000 0.000000
vn 0.000000 -1.000000 0.000000
vn 0.000000 -1.000000 0.000000
vn 0.000000 -1.000000 0.000000
vn 0.000000 -1.000000 0.000000
vn 0.000000 -1.000000 0.000000
vn 0.000000 -1.000000 0.000000
vn 0.000000 -1.000000 0.000000
vn 0.000000 -1.000000 0.000000
vn 0.000000 -1.000000 0.000000
vn 0.000000 -1.000000 0.000000
vn 0.000000 -1.000000 0.000000
vn 0.000000 -1.000000 0.000000
vn 0.000000 -1.000000 0.000000
vn 0.000000 -1.000000 0.000000
vn 0.000000 -1.000000 0.000000
vn 0.000000 -1.000000 0.000000
vn 0.000000 -1.000000 0.000000
vn 0.000000 -1.000000 0.000000
vn 0.000000 -1.000000 0.000000
vn 0.000000 -1.000000 0.000000
vn 0.000000 -1.000000 0.000000
vn 0.000000 -1.000000 0.000000
vn 0.000000 -1.000000 0.000000
vn 0.000000 -1.000000 0.000000
vn 0.000000 -1.000000 0.000000
vn 0.000000 -1.000000 0.000000
vn 0.000000 -1.000000 0.000000
vn 0.000000 -1.000000 0.000000
vn 0.000000 -1.000000 0.000000
s 1
g pCylinder1 polySurface1
usemtl initialShadingGroup
f 44/44/44 45/45/45 87/46/46 86/47/47
f 45/45/45 46/48/48 88/49/49 87/46/46
f 46/48/48 47/50/50 89/51/51 88/49/49
f 47/50/50 48/52/52 90/53/53 89/51/51
f 48/52/52 49/54/54 91/55/55 90/53/53
f 49/54/54 50/56/56 92/57/57 91/55/55
f 50/56/56 51/58/58 93/59/59 92/57/57
f 51/58/58 52/60/60 94/61/61 93/59/59
f 52/60/60 53/62/62 95/63/63 94/61/61
f 53/62/62 54/64/64 96/65/65 95/63/63
f 54/64/64 55/66/66 97/67/67 96/65/65
f 55/66/66 56/68/68 98/69/69 97/67/67
f 56/68/68 57/70/70 99/71/71 98/69/69
f 57/70/70 58/72/72 100/73/73 99/71/71
f 58/72/72 59/74/74 101/75/75 100/73/73
f 59/74/74 60/76/76 102/77/77 101/75/75
f 60/76/76 61/78/78 103/79/79 102/77/77
f 61/78/78 62/80/80 104/81/81 103/79/79
f 62/80/80 63/82/82 105/83/83 104/81/81
f 63/82/82 64/84/84 106/85/85 105/83/83
f 64/84/84 65/86/86 107/87/87 106/85/85
f 65/86/86 66/88/88 108/89/89 107/87/87
f 66/88/88 67/90/90 109/91/91 108/89/89
f 67/90/90 68/92/92 110/93/93 109/91/91
f 68/92/92 69/94/94 111/95/95 110/93/93
f 69/94/94 70/96/96 112/97/97 111/95/95
f 70/96/96 71/98/98 113/99/99 112/97/97
f 71/98/98 72/100/100 114/101/101 113/99/99
f 72/100/100 73/102/102 115/103/103 114/101/101
f 73/102/102 74/104/104 116/105/105 115/103/103
f 74/104/104 75/106/106 117/107/107 116/105/105
f 75/106/106 76/108/108 118/109/109 117/107/107
f 76/108/108 77/110/110 119/111/111 118/109/109
f 77/110/110 78/112/112 120/113/113 119/111/111
f 78/112/112 79/114/114 121/115/115 120/113/113
f 79/114/114 80/116/116 122/117/117 121/115/115
f 80/116/116 81/118/118 123/119/119 122/117/117
f 81/118/118 82/120/120 124/121/121 123/119/119
f 82/120/120 83/122/122 125/123/123 124/121/121
f 83/122/122 84/124/124 126/125/125 125/123/123
f 84/124/124 85/126/126 127/127/127 126/125/125
f 85/126/126 44/128/44 86/129/47 127/127/127
s 2
f 45/130/128 44/131/129 128/132/130
f 46/133/131 45/130/128 128/132/130
f 47/134/132 46/133/131 128/132/130
f 48/135/133 47/134/132 128/132/130
f 49/136/134 48/135/133 128/132/130
f 50/137/135 49/136/134 128/132/130
f 51/138/136 50/137/135 128/132/130
f 52/139/137 51/138/136 128/132/130
f 53/140/138 52/139/137 128/132/130
f 54/141/139 53/140/138 128/132/130
f 55/142/140 54/141/139 128/132/130
f 56/143/141 55/142/140 128/132/130
f 57/144/142 56/143/141 128/132/130
f 58/145/143 57/144/142 128/132/130
f 59/146/144 58/145/143 128/132/130
f 60/147/145 59/146/144 128/132/130
f 61/148/146 60/147/145 128/132/130
f 62/149/147 61/148/146 128/132/130
f 63/150/148 62/149/147 128/132/130
f 64/151/149 63/150/148 128/132/130
f 65/152/150 64/151/149 128/132/130
f 66/153/151 65/152/150 128/132/130
f 67/154/152 66/153/151 128/132/130
f 68/155/153 67/154/152 128/132/130
f 69/156/154 68/155/153 128/132/130
f 70/157/155 69/156/154 128/132/130
f 71/158/156 70/157/155 128/132/130
f 72/159/157 71/158/156 128/132/130
f 73/160/158 72/159/157 128/132/130
f 74/161/159 73/160/158 128/132/130
f 75/162/160 74/161/159 128/132/130
f 76/163/161 75/162/160 128/132/130
f 77/164/162 76/163/161 128/132/130
f 78/165/163 77/164/162 128/132/130
f 79/166/164 78/165/163 128/132/130
f 80/167/165 79/166/164 128/132/130
f 81/168/166 80/167/165 128/132/130
f 82/169/167 81/168/166 128/132/130
f 83/170/168 82/169/167 128/132/130
f 84/171/169 83/170/168 128/132/130
f 85/172/170 84/171/169 128/132/130
f 44/131/129 85/172/170 128/132/130
